<svg xmlns="http://www.w3.org/2000/svg" viewBox="0 0 800 450" role="img" aria-hidden="true">
  <defs>
    <linearGradient id="g7" x1="0%" y1="0%" x2="100%" y2="0%">
      <stop offset="0%" stop-color="#9f1239"/>
      <stop offset="100%" stop-color="#fda4af"/>
    </linearGradient>
  </defs>
  <rect width="800" height="450" fill="url(#g7)"/>
  <!-- ?? / ?? -->
  <g fill="none" stroke="#fff" stroke-width="3" stroke-linecap="round" opacity="0.9">
    <path d="M120 230 Q200 120 280 230 T440 230 T600 230 T680 230"/>
  </g>
  <g fill="#fff" opacity="0.85">
    <rect x="200" y="180" width="12" height="100" rx="4"/>
    <rect x="230" y="150" width="12" height="160" rx="4"/>
    <rect x="260" y="195" width="12" height="70" rx="4"/>
    <rect x="290" y="165" width="12" height="130" rx="4"/>
    <rect x="320" y="200" width="12" height="60" rx="4"/>
    <rect x="350" y="140" width="12" height="180" rx="4"/>
    <rect x="380" y="175" width="12" height="110" rx="4"/>
    <rect x="410" y="190" width="12" height="80" rx="4"/>
    <rect x="440" y="155" width="12" height="150" rx="4"/>
    <rect x="470" y="185" width="12" height="90" rx="4"/>
    <rect x="500" y="170" width="12" height="120" rx="4"/>
    <rect x="530" y="200" width="12" height="60" rx="4"/>
    <rect x="560" y="160" width="12" height="140" rx="4"/>
  </g>
  <text x="400" y="395" text-anchor="middle" fill="rgba(255,255,255,0.9)" font-family="system-ui,sans-serif" font-size="20" font-weight="600">Speech / Audio AI</text>
</svg>
