<svg xmlns="http://www.w3.org/2000/svg" viewBox="0 0 800 450" role="img" aria-hidden="true">
  <defs>
    <linearGradient id="g4" x1="0%" y1="0%" x2="0%" y2="100%">
      <stop offset="0%" stop-color="#14532d"/>
      <stop offset="100%" stop-color="#4ade80"/>
    </linearGradient>
  </defs>
  <rect width="800" height="450" fill="url(#g4)"/>
  <!-- ?? -->
  <rect x="300" y="130" width="200" height="200" rx="16" fill="rgba(15,23,42,0.35)" stroke="#fff" stroke-width="3"/>
  <g fill="none" stroke="#bbf7d0" stroke-width="2">
    <path d="M300 170 H260 M300 210 H250 M300 250 H250 M300 290 H260"/>
    <path d="M500 170 H540 M500 210 H550 M500 250 H550 M500 290 H540"/>
    <path d="M340 130 V100 M380 130 V95 M420 130 V95 M460 130 V100"/>
    <path d="M340 330 V360 M380 330 V365 M420 330 V365 M460 330 V360"/>
  </g>
  <rect x="340" y="170" width="120" height="120" rx="8" fill="rgba(255,255,255,0.12)" stroke="rgba(255,255,255,0.5)"/>
  <path d="M360 230 H420 M390 200 V260" stroke="#fff" stroke-width="2.5" opacity="0.85"/>
  <text x="400" y="400" text-anchor="middle" fill="rgba(255,255,255,0.85)" font-family="system-ui,sans-serif" font-size="20" font-weight="600">Edge AI Chip</text>
</svg>
