<svg xmlns="http://www.w3.org/2000/svg" viewBox="0 0 800 450" role="img" aria-hidden="true">
  <defs>
    <linearGradient id="g3" x1="0%" y1="50%" x2="100%" y2="50%">
      <stop offset="0%" stop-color="#6b21a8"/>
      <stop offset="100%" stop-color="#ec4899"/>
    </linearGradient>
  </defs>
  <rect width="800" height="450" fill="url(#g3)"/>
  <!-- ???????? +  token ? -->
  <rect x="180" y="120" width="440" height="100" rx="20" fill="rgba(255,255,255,0.15)" stroke="rgba(255,255,255,0.4)" stroke-width="2"/>
  <path d="M240 220 L220 260 L280 230 Z" fill="rgba(255,255,255,0.15)" stroke="rgba(255,255,255,0.35)"/>
  <g opacity="0.9">
    <rect x="220" y="150" width="80" height="14" rx="4" fill="#fff"/>
    <rect x="320" y="150" width="120" height="14" rx="4" fill="rgba(255,255,255,0.55)"/>
    <rect x="460" y="150" width="90" height="14" rx="4" fill="rgba(255,255,255,0.4)"/>
    <rect x="220" y="178" width="200" height="10" rx="3" fill="rgba(255,255,255,0.35)"/>
    <rect x="440" y="178" width="100" height="10" rx="3" fill="rgba(255,255,255,0.25)"/>
  </g>
  <g fill="#fbbf24">
    <polygon points="520,260 530,285 505,270 555,270 530,285 540,310 520,290 500,310 510,285"/>
  </g>
  <text x="400" y="340" text-anchor="middle" fill="rgba(255,255,255,0.8)" font-family="system-ui,sans-serif" font-size="20" font-weight="600">LLM / NLP</text>
</svg>
