<svg width="119" height="98" viewBox="0 0 119 98" fill="none" xmlns="http://www.w3.org/2000/svg">
<defs>
<linearGradient id="bingo-lg-p0" x1="19" y1="10" x2="100" y2="90" gradientUnits="userSpaceOnUse">
<stop stop-color="#56CCF2"/>
<stop offset="0.5" stop-color="#3D94F2"/>
<stop offset="1" stop-color="#2478D4"/>
</linearGradient>
<linearGradient id="bingo-lg-p1" x1="16" y1="4" x2="96" y2="86" gradientUnits="userSpaceOnUse">
<stop stop-color="#5EB8FF"/>
<stop offset="0.48" stop-color="#3589EA"/>
<stop offset="1" stop-color="#2F80ED"/>
</linearGradient>
<linearGradient id="bingo-lg-p2" x1="35" y1="24" x2="100" y2="95" gradientUnits="userSpaceOnUse">
<stop stop-color="#56CCF2"/>
<stop offset="0.5" stop-color="#42AAF5"/>
<stop offset="1" stop-color="#2F80ED"/>
</linearGradient>
<linearGradient id="bingo-lg-p3" x1="19" y1="9.99998" x2="100" y2="90" gradientUnits="userSpaceOnUse">
<stop stop-color="#56CCF2"/>
<stop offset="0.5" stop-color="#3D94F2"/>
<stop offset="1" stop-color="#2478D4"/>
</linearGradient>
<linearGradient id="bingo-lg-p4" x1="16" y1="3.99999" x2="96" y2="86" gradientUnits="userSpaceOnUse">
<stop stop-color="#5EB8FF"/>
<stop offset="0.48" stop-color="#3589EA"/>
<stop offset="1" stop-color="#2F80ED"/>
</linearGradient>
<linearGradient id="bingo-lg-p5" x1="35" y1="24" x2="100" y2="95" gradientUnits="userSpaceOnUse">
<stop stop-color="#56CCF2"/>
<stop offset="0.5" stop-color="#42AAF5"/>
<stop offset="1" stop-color="#2F80ED"/>
</linearGradient>
</defs>
<mask id="bingo-lg-m0" mask-type="luminance" maskUnits="userSpaceOnUse" x="20" y="10" width="76" height="76">
<path fill-rule="evenodd" clip-rule="evenodd" d="M35.7383 58.0406L35.755 57.9726C38.2938 47.5535 41.2347 41.1625 44.1552 36.9488C45.7965 34.5805 49.1289 30.4314 51.332 28.8406C59.6732 22.8173 71.8242 25.3661 72.4348 30.9855C72.7373 33.7708 68.7452 36.6365 68.7452 36.6937C66.5676 37.9509 39.3426 55.2813 39.3426 55.3942C38.0729 56.1272 36.8872 57.2565 35.7772 58.0142C35.7471 58.0343 35.7723 58.0205 35.7168 58.0528C29.7643 61.5017 25.0925 69.3622 24.8675 69.3622C19.0661 78.8163 20.5407 85.7214 20.5537 85.9272C25.5489 67.284 48.4956 58.7367 65.2254 53.3304C75.5557 49.9921 90.0218 45.364 94.4348 34.25C100.943 17.8575 78.2651 11.2325 78.2651 11.2325C43.3009 8.49004 32.5434 29.7222 35.7383 58.0406Z" fill="white"/>
</mask>
<g mask="url(#bingo-lg-m0)">
<path d="M100.949 7.94128H18.9492V85.9413H100.949V7.94128Z" fill="url(#bingo-lg-p0)"/>
</g>
<mask id="bingo-lg-m1" mask-type="luminance" maskUnits="userSpaceOnUse" x="18" y="8" width="61" height="62">
<path fill-rule="evenodd" clip-rule="evenodd" d="M78.2646 11.2325C78.2646 11.2325 55.5432 4.40904 37.372 13.4881C26.9683 18.6862 21.8764 26.3063 19.4834 37.5636C17.7177 45.8697 17.7991 57.1201 24.867 69.3621C24.8706 69.3621 24.8752 69.3601 24.8808 69.3561C24.8865 69.3524 24.8933 69.3468 24.901 69.3391C24.9089 69.3317 24.9177 69.3224 24.9276 69.3113C24.9378 69.3003 24.9483 69.2872 24.9605 69.2728L24.9996 69.224L25.045 69.1648L25.0963 69.0959L25.1535 69.0174L25.217 68.9298L25.2176 68.9289L25.2859 68.8331L25.2871 68.832L25.361 68.7277L25.3622 68.7262L25.4418 68.6137L25.443 68.6123L25.528 68.4918L25.5294 68.4898L25.6198 68.362L25.6215 68.3597L25.7174 68.2245L25.7191 68.222L25.82 68.0799L25.8222 68.0771L25.9282 67.9283L25.9305 67.9249L26.0416 67.7696L26.0442 67.7662L26.1604 67.6049L26.163 67.6009L26.284 67.4337L26.2871 67.4294L26.413 67.2568L26.4164 67.2519L26.5468 67.0739L26.5505 67.0691L26.6857 66.886L26.6894 66.8809L26.8291 66.693L26.8334 66.6876L26.9776 66.4954L26.9822 66.4891L27.1307 66.293L27.1355 66.2868L27.2883 66.0866L27.2937 66.0798L27.4507 65.876L27.4561 65.8689L27.6174 65.662L27.6234 65.6546L27.7886 65.4446L27.7949 65.4366L27.9641 65.224L27.9706 65.2158L28.1438 65.0007L28.1509 64.9922L28.3278 64.7748L28.3351 64.766L28.516 64.5466L28.5239 64.5375C28.5874 64.461 28.6515 64.3841 28.7164 64.307L28.9043 64.0851L28.9128 64.0749L29.1045 63.8518L29.1133 63.8416L29.3083 63.6174L29.3176 63.6069L29.5158 63.3824L29.5257 63.3713C29.5923 63.2968 29.6592 63.2217 29.727 63.1468L29.7374 63.1355L29.7428 63.1292C29.8123 63.0527 29.8823 62.9759 29.9529 62.8991C30.0215 62.8245 30.0906 62.7494 30.1604 62.6748L30.1714 62.6629C30.2414 62.5884 30.3117 62.5136 30.3823 62.439L30.3939 62.4271L30.4702 62.3474C30.6692 62.1394 30.8716 61.9322 31.0782 61.7267L31.1329 61.6728L31.3127 61.4959L31.3671 61.4432C31.4297 61.3825 31.4924 61.3219 31.5556 61.2618C31.6307 61.1898 31.7067 61.1181 31.7829 61.0469L31.788 61.0421C31.8566 60.978 31.9258 60.9142 31.995 60.8508L32.0287 60.8196C32.0783 60.7742 32.1288 60.7291 32.1786 60.6841L32.283 60.59L32.3637 60.5185C32.4219 60.4669 32.4802 60.4154 32.5389 60.3646L32.5398 60.3635C32.6186 60.2952 32.6974 60.2271 32.7768 60.1597L32.7847 60.1531C32.8385 60.1072 32.8933 60.0619 32.9477 60.0165L33.037 59.942C33.092 59.8963 33.1475 59.8513 33.2034 59.8062L33.2966 59.7302C33.3491 59.688 33.4021 59.6463 33.4551 59.6044L33.5574 59.5236L33.6606 59.4442C33.717 59.4005 33.7737 59.3569 33.8304 59.3138L33.8463 59.3022C33.9282 59.2404 34.0104 59.1792 34.0932 59.1185L34.1623 59.0686C34.2275 59.0213 34.2927 58.9742 34.3582 58.9277L34.456 58.8594C34.5135 58.8194 34.5708 58.7792 34.6286 58.7398L34.7321 58.6703C34.7879 58.6329 34.8435 58.5952 34.8993 58.5584C34.9447 58.5283 34.9909 58.4994 35.0365 58.4699C35.0813 58.441 35.1258 58.4118 35.1706 58.3835C35.229 58.3463 35.288 58.3106 35.3466 58.2743L35.445 58.2137C35.4969 58.1822 35.5493 58.1519 35.6015 58.121C35.6397 58.0983 35.678 58.0751 35.7163 58.0527L35.7302 58.0447L35.7339 58.0428L35.7378 58.0402C32.5429 29.7218 43.3004 8.49002 78.2646 11.2325ZM29.7428 63.1292C29.8123 63.0527 29.8823 62.9759 29.9529 62.8991L29.7428 63.1292Z" fill="white"/>
</mask>
<g mask="url(#bingo-lg-m1)">
<path d="M78.9492 3.94122H16.9492V69.9412H78.9492V3.94122Z" fill="url(#bingo-lg-p1)"/>
</g>
<mask id="bingo-lg-m2" mask-type="luminance" maskUnits="userSpaceOnUse" x="39" y="25" width="20" height="22">
<path fill-rule="evenodd" clip-rule="evenodd" d="M58.262 25.8005L58.1115 33.6731C58.1115 33.6731 47.4005 34.424 39.2656 46.0458C40.7923 42.1921 42.38 39.2704 43.962 36.9885C45.6033 34.6199 48.9354 30.4711 51.1388 28.8803C53.3416 27.2892 55.8103 26.2971 58.262 25.8005Z" fill="white"/>
</mask>
<g mask="url(#bingo-lg-m2)">
<path d="M58.9473 24.9413H38.9473V46.9413H58.9473V24.9413Z" fill="url(#bingo-lg-p2)"/>
</g>
<mask id="bingo-lg-m3" mask-type="luminance" maskUnits="userSpaceOnUse" x="20" y="30" width="76" height="64">
<path fill-rule="evenodd" clip-rule="evenodd" d="M95.4471 30.6038C99.2421 46.1767 76.794 52.6785 60.4798 60.4514C45.5554 67.5621 27.1888 77.8756 22.8308 93.5439C21.3361 90.8804 20.628 88.3359 20.5586 85.9094C23.9942 73.1212 35.8787 65.0855 48.4036 59.5554C54.3666 56.9886 60.3358 54.9105 65.2252 53.3304L65.7125 53.1729L66.2055 53.0135L66.7038 52.852L67.2072 52.6882L67.7155 52.5218L68.228 52.3534L68.7447 52.1819L69.2655 52.0078L69.7893 51.8313L70.3165 51.6512L70.8463 51.4684C71.0235 51.4068 71.201 51.3452 71.3787 51.2825C71.5567 51.2199 71.7347 51.1566 71.9133 51.0929C72.0919 51.0294 72.2708 50.965 72.4496 50.9001C72.6288 50.8352 72.8082 50.7696 72.9876 50.7036C73.1671 50.6375 73.3468 50.5709 73.5268 50.5034C73.7068 50.4363 73.8868 50.3683 74.0668 50.2997C74.2468 50.2311 74.4271 50.1619 74.6074 50.0919C74.7876 50.0221 74.9676 49.9516 75.1482 49.8802C75.3282 49.8088 75.5085 49.7371 75.6888 49.6642C75.8688 49.5916 76.0488 49.5182 76.2288 49.4442C76.4088 49.37 76.5888 49.2951 76.7682 49.2195C76.9479 49.1438 77.1274 49.0675 77.3065 48.9904C77.4859 48.9133 77.6648 48.8354 77.8434 48.7566C78.0222 48.678 78.2005 48.5984 78.3786 48.5182C78.5569 48.4379 78.7343 48.3566 78.9118 48.2749C79.0892 48.193 79.2658 48.1103 79.4424 48.0266C79.6187 47.943 79.795 47.8585 79.9705 47.7732C80.146 47.6879 80.3211 47.6016 80.4955 47.5146C80.6701 47.4276 80.8439 47.3395 81.0171 47.2505C81.1905 47.1618 81.3632 47.0719 81.5349 46.9812C81.707 46.8905 81.8785 46.7987 82.0489 46.7063C82.2196 46.6139 82.3896 46.52 82.5585 46.4253C82.7278 46.3309 82.8961 46.2353 83.0634 46.1389C83.2309 46.0423 83.3976 45.9449 83.5634 45.8465C83.7292 45.7479 83.8942 45.6485 84.0581 45.5479C84.2222 45.4473 84.3849 45.3459 84.547 45.2433C84.7092 45.1407 84.8702 45.0372 85.0303 44.9323C85.1902 44.8277 85.349 44.7217 85.5068 44.6149C85.6644 44.5083 85.8215 44.4002 85.9771 44.291C86.133 44.1819 86.2872 44.072 86.4403 43.9606C86.5937 43.8492 86.7456 43.7367 86.8964 43.6233C87.0472 43.5096 87.1966 43.3948 87.3448 43.2789C87.4928 43.1632 87.6399 43.0461 87.7853 42.9279C87.9308 42.8094 88.0748 42.6901 88.2176 42.5697C88.3602 42.4489 88.5014 42.3269 88.6411 42.2039C88.7811 42.0809 88.9192 41.9565 89.0561 41.8309C89.193 41.7054 89.3279 41.5787 89.4617 41.4505C89.5953 41.3227 89.7274 41.1933 89.8577 41.0627C89.9881 40.932 90.1168 40.8003 90.2441 40.667C90.3711 40.5338 90.4964 40.3992 90.62 40.2634C90.7436 40.1276 90.8655 39.9903 90.9857 39.8517C91.1056 39.7134 91.224 39.5737 91.3403 39.4323C91.4568 39.2911 91.5713 39.1485 91.6838 39.0045C91.7966 38.8605 91.9072 38.7151 92.0158 38.5686C92.1246 38.4217 92.2315 38.2735 92.3364 38.1241C92.4412 37.9744 92.5436 37.8232 92.6442 37.6707C92.7451 37.5182 92.8435 37.3643 92.9401 37.209C93.0365 37.0536 93.1309 36.897 93.223 36.7388C93.3152 36.5803 93.405 36.4205 93.4929 36.2592C93.5805 36.0979 93.6661 35.9352 93.7491 35.7708C93.8325 35.6063 93.9133 35.4408 93.9918 35.2733C94.0706 35.106 94.1466 34.9368 94.2205 34.7664C94.2942 34.5958 94.3657 34.4237 94.4346 34.25C94.5355 33.9963 94.6293 33.7446 94.716 33.4954L94.7209 33.4821C94.8062 33.2363 94.8853 32.9928 94.9578 32.7516L94.9638 32.7314C95.0352 32.4915 95.101 32.2546 95.1599 32.019L95.1651 31.9987C95.2234 31.7654 95.2756 31.534 95.3221 31.3052L95.3283 31.2742C95.3737 31.0485 95.4131 30.8252 95.4471 30.6038Z" fill="white"/>
</mask>
<g mask="url(#bingo-lg-m3)">
<path d="M99.9492 29.9413H19.9492V93.9413H99.9492V29.9413Z" fill="url(#bingo-lg-p3)"/>
</g>
<mask id="bingo-lg-m4" mask-type="luminance" maskUnits="userSpaceOnUse" x="41" y="44" width="67" height="42">
<path fill-rule="evenodd" clip-rule="evenodd" d="M91.172 44.0726C94.6858 45.7289 107.404 52.6161 107.404 65.5296C107.517 65.5296 107.884 78.94 88.1406 84.2303C88.0167 84.4449 61.7702 90.5377 41.4316 71.0711C41.9027 70.7485 42.3772 70.4302 42.8554 70.1158C45.2201 71.9654 52.1658 76.6139 62.8595 77.1874C66.5375 77.3847 70.3937 76.9153 73.8106 75.53C80.1494 72.9598 84.1593 66.5439 80.2503 60.1288C79.1392 58.3052 77.3582 56.0963 74.6355 54.1228C81.1056 51.1756 87.1881 48.0076 91.172 44.0726Z" fill="white"/>
</mask>
<g mask="url(#bingo-lg-m4)">
<path d="M107.949 43.9412H40.9492V90.9412H107.949V43.9412Z" fill="url(#bingo-lg-p4)"/>
</g>
<mask id="bingo-lg-m5" mask-type="luminance" maskUnits="userSpaceOnUse" x="33" y="71" width="72" height="23">
<path fill-rule="evenodd" clip-rule="evenodd" d="M41.4327 71.0712L33.5039 87.1019C33.5039 87.1019 85.0562 107.792 104.916 73.3936L104.914 73.3939C102.45 77.2907 97.6083 81.6936 88.1417 84.2303C88.0178 84.4449 61.7713 90.5378 41.4327 71.0712Z" fill="white"/>
</mask>
<g mask="url(#bingo-lg-m5)">
<path d="M104.949 70.9413H32.9492V107.941H104.949V70.9413Z" fill="url(#bingo-lg-p5)"/>
</g>
</svg>
